<svg width="24" height="25" viewBox="0 0 24 25" fill="none" xmlns="http://www.w3.org/2000/svg">
<path d="M12 9.72498C14.21 9.72498 16 7.93498 16 5.72498C16 3.51498 14.21 1.72498 12 1.72498C9.79 1.72498 8 3.51498 8 5.72498C8 7.93498 9.79 9.72498 12 9.72498ZM12 3.72498C13.1 3.72498 14 4.62498 14 5.72498C14 6.82498 13.1 7.72498 12 7.72498C10.9 7.72498 10 6.82498 10 5.72498C10 4.62498 10.9 3.72498 12 3.72498ZM12 12.275C9.64 10.075 6.48 8.72498 3 8.72498V19.725C6.48 19.725 9.64 21.075 12 23.275C14.36 21.085 17.52 19.725 21 19.725V8.72498C17.52 8.72498 14.36 10.075 12 12.275ZM19 17.855C16.47 18.195 14.07 19.155 12 20.675C9.94 19.155 7.53 18.185 5 17.845V10.895C7.1 11.275 9.05 12.245 10.64 13.725L12 15.005L13.36 13.735C14.95 12.255 16.9 11.285 19 10.905V17.855Z" fill="#0A000D"/>
</svg>
