<svg width="25" height="24" viewBox="0 0 25 24" fill="none" xmlns="http://www.w3.org/2000/svg">
<path d="M23.5 12L21.06 9.21L21.4 5.52L17.79 4.7L15.9 1.5L12.5 2.96L9.1 1.5L7.21 4.69L3.6 5.5L3.94 9.2L1.5 12L3.94 14.79L3.6 18.49L7.21 19.31L9.1 22.5L12.5 21.03L15.9 22.49L17.79 19.3L21.4 18.48L21.06 14.79L23.5 12ZM9.88 16.01L7.5 13.61C7.11 13.22 7.11 12.59 7.5 12.2L7.57 12.13C7.96 11.74 8.6 11.74 8.99 12.13L10.6 13.75L15.75 8.59C16.14 8.2 16.78 8.2 17.17 8.59L17.24 8.66C17.63 9.05 17.63 9.68 17.24 10.07L11.32 16.01C10.91 16.4 10.28 16.4 9.88 16.01Z" fill="#40196C"/>
</svg>
